<svg width="20" height="20" viewBox="0 0 20 20" fill="none" xmlns="http://www.w3.org/2000/svg">
<path d="M16.7929 18.2071L17.5 18.9142L18.9142 17.5L18.2071 16.7929L16.7929 18.2071ZM14.5821 13.1679L13.875 12.4608L12.4608 13.875L13.1679 14.5821L14.5821 13.1679ZM14.8333 9.16667C14.8333 12.2963 12.2963 14.8333 9.16667 14.8333V16.8333C13.4009 16.8333 16.8333 13.4009 16.8333 9.16667H14.8333ZM9.16667 14.8333C6.03705 14.8333 3.5 12.2963 3.5 9.16667H1.5C1.5 13.4009 4.93248 16.8333 9.16667 16.8333V14.8333ZM3.5 9.16667C3.5 6.03705 6.03705 3.5 9.16667 3.5V1.5C4.93248 1.5 1.5 4.93248 1.5 9.16667H3.5ZM9.16667 3.5C12.2963 3.5 14.8333 6.03705 14.8333 9.16667H16.8333C16.8333 4.93248 13.4009 1.5 9.16667 1.5V3.5ZM18.2071 16.7929L14.5821 13.1679L13.1679 14.5821L16.7929 18.2071L18.2071 16.7929Z" fill="white" fill-opacity="1"/>
</svg>
